<svg width="32" height="32" viewBox="0 0 32 32" fill="none" xmlns="http://www.w3.org/2000/svg"><path d="M29.7 16.4c0-1-.1-2-.3-2.9h-13v5.4h7.4c-.3 1.6-1.2 3-2.6 3.9v3.3h4.2c2.4-2.2 3.8-5.5 3.8-9.7z" fill="#4285F4"/><path d="M16.4 30c3.5 0 6.5-1.2 8.7-3.2l-4.2-3.3c-1.2.8-2.7 1.3-4.5 1.3-3.5 0-6.4-2.3-7.5-5.5H4.5v3.4c2.2 4.4 6.8 7.3 11.9 7.3z" fill="#34A853"/><path d="M8.9 19.3c-.3-.8-.4-1.7-.4-2.6 0-.9.2-1.8.4-2.6V10.7H4.5C3.5 12.5 3 14.6 3 16.7s.5 4.2 1.5 6l4.4-3.4z" fill="#FBBC05"/><path d="M16.4 8.6c2 0 3.7.7 5.1 2l3.8-3.8C22.9 4.5 19.9 3 16.4 3 11.3 3 6.7 5.9 4.5 10.3l4.4 3.4c1.1-3.2 4-5.1 7.5-5.1z" fill="#EA4335"/></svg>