<svg width="32" height="32" viewBox="0 0 32 32" fill="none" xmlns="http://www.w3.org/2000/svg"><path d="M16 2C8.268 2 2 8.268 2 16s6.268 14 14 14 14-6.268 14-14S23.732 2 16 2zm7.32 18.32c-.88 1.12-2.12 1.96-3.52 2.4-1.4.44-2.88.52-4.28.24-1.4-.28-2.72-.92-3.8-1.84-1.08-.92-1.92-2.08-2.44-3.4-.52-1.32-.68-2.76-.44-4.16.24-1.4.84-2.72 1.76-3.8.92-1.08 2.08-1.92 3.4-2.44 1.32-.52 2.76-.68 4.16-.44 1.4.24 2.72.84 3.8 1.76.44.36.84.76 1.16 1.2l-2.12 2.04c-.24-.32-.52-.6-.84-.84-.72-.6-1.56-1-2.48-1.16-.92-.16-1.84-.08-2.72.28-.88.36-1.64.92-2.24 1.64-.6.72-1 1.56-1.16 2.48-.16.92-.08 1.84.28 2.72.36.88.92 1.64 1.64 2.24.72.6 1.56 1 2.48 1.16.92.16 1.84.08 2.72-.28.88-.36 1.64-.92 2.24-1.64.48-.56.8-1.2 1-1.92h-4.4v-2.88h7.6c.08.48.12.96.12 1.44 0 1.48-.4 2.92-1.28 4.04z" fill="#0056D2"/></svg>